<svg xmlns="http://www.w3.org/2000/svg" xmlns:xlink="http://www.w3.org/1999/xlink" viewBox="0 0 356.96 234.84"><defs><style>.cls-1{isolation:isolate;}.cls-2{fill:url(#linear-gradient);}.cls-3,.cls-6{mix-blend-mode:overlay;opacity:0.57;}.cls-3{fill:url(#linear-gradient-2);}.cls-4{mix-blend-mode:darken;fill:url(#linear-gradient-3);}.cls-5{fill:url(#linear-gradient-4);}.cls-6{fill:url(#linear-gradient-5);}</style><linearGradient id="linear-gradient" x1="-3030.9" y1="-830.56" x2="-2718.39" y2="-830.56" gradientTransform="translate(-2718.39 -735.9) rotate(180)" gradientUnits="userSpaceOnUse"><stop offset="0" stop-color="#4a2182"/><stop offset="1" stop-color="#92239c"/></linearGradient><linearGradient id="linear-gradient-2" x1="-3003.69" y1="-773.38" x2="-2846.63" y2="-773.38" xlink:href="#linear-gradient"/><linearGradient id="linear-gradient-3" x1="-3136.39" y1="-544.23" x2="-2818.8" y2="-544.23" gradientTransform="translate(-2577.62 -1078.78) rotate(-167.35)" xlink:href="#linear-gradient"/><linearGradient id="linear-gradient-4" x1="-3067.57" y1="-853.53" x2="-2769.58" y2="-853.53" xlink:href="#linear-gradient"/><linearGradient id="linear-gradient-5" x1="-3042.51" y1="-916.17" x2="-2769.58" y2="-916.17" xlink:href="#linear-gradient"/></defs><g class="cls-1"><g id="Layer_2" data-name="Layer 2"><g id="Object"><path class="cls-2" d="M229.08,6.47S153.77,85.84,100.39,64,10.81,89.64,4.31,108.16.59,163.36.59,163.36l188.46,19.49H312.52S300.45,70.52,300,68.67,229.08,6.47,229.08,6.47Z"/><path class="cls-3" d="M229.08,6.47s5,73-100.84,60c0,0,79.16,31.87,138-28S229.08,6.47,229.08,6.47Z"/><path class="cls-4" d="M301.39,34.65s-52.47,74.56-138.17,28c-50.66-27.53-90.63,7.12-103.41,22-23.17,27-20.69,64.76-20.69,64.76L223.71,198l120.48,27S357,112.78,357,110.87,301.39,34.65,301.39,34.65Z"/><path class="cls-5" d="M303.7,27.82s-76.13,93.76-114.65,73.8-56.63-29.7-83.55-7-54.31,81.7-54.31,81.7l171.28,31.09,90-29.24,36.67-53.38Z"/><path class="cls-6" d="M51.19,176.36s67.3-89.49,165.24-30.59,107.69,89.07,107.69,89.07L158.94,233Z"/></g></g></g></svg>