<svg xmlns="http://www.w3.org/2000/svg" xmlns:xlink="http://www.w3.org/1999/xlink" viewBox="0 0 356.97 354.88"><defs><style>.cls-1{isolation:isolate;}.cls-2{fill:url(#linear-gradient);}.cls-3,.cls-6,.cls-7{mix-blend-mode:overlay;opacity:0.57;}.cls-3{fill:url(#linear-gradient-2);}.cls-4{mix-blend-mode:darken;fill:url(#linear-gradient-3);}.cls-5{fill:url(#linear-gradient-4);}.cls-6{fill:url(#linear-gradient-5);}.cls-7{fill:url(#linear-gradient-6);}.cls-8{fill:none;}</style><linearGradient id="linear-gradient" x1="44.44" y1="140.19" x2="356.97" y2="140.19" gradientUnits="userSpaceOnUse"><stop offset="0" stop-color="#4a2182"/><stop offset="1" stop-color="#92239c"/></linearGradient><linearGradient id="linear-gradient-2" x1="71.66" y1="197.36" x2="228.73" y2="197.36" xlink:href="#linear-gradient"/><linearGradient id="linear-gradient-3" x1="29.65" y1="-102.93" x2="347.24" y2="-102.93" gradientTransform="translate(-58 189.81) rotate(12.65)" xlink:href="#linear-gradient"/><linearGradient id="linear-gradient-4" x1="7.77" y1="117.21" x2="305.78" y2="117.21" xlink:href="#linear-gradient"/><linearGradient id="linear-gradient-5" x1="289.26" y1="107.46" x2="356.38" y2="107.46" xlink:href="#linear-gradient"/><linearGradient id="linear-gradient-6" x1="32.84" y1="54.57" x2="305.78" y2="54.57" xlink:href="#linear-gradient"/></defs><g class="cls-1"><g id="Layer_2" data-name="Layer 2"><g id="Object"><path class="cls-2" d="M127.89,228.38S203.2,149,256.58,170.82s89.59-25.61,96.09-44.14,3.71-55.19,3.71-55.19L167.92,52H44.44S56.51,164.32,57,166.18,127.89,228.38,127.89,228.38Z"/><path class="cls-3" d="M127.89,228.38s-5-73,100.84-60c0,0-79.17-31.87-138,28S127.89,228.38,127.89,228.38Z"/><path class="cls-4" d="M55.57,200.2s52.47-74.56,138.17-28c50.67,27.53,90.64-7.13,103.42-22,23.17-27,20.69-64.77,20.69-64.77L133.25,36.85,12.77,9.81S0,122.06,0,124,55.57,200.2,55.57,200.2Z"/><path class="cls-5" d="M53.26,207s76.13-93.77,114.66-73.81,56.63,29.71,83.55,7,54.31-81.7,54.31-81.7L134.5,27.39,44.44,56.63,7.77,110Z"/><path class="cls-6" d="M327.47,68.5S353,127.65,289.26,168c0,0,62.16-16.71,67.12-96.55l-5-24.61Z"/><path class="cls-7" d="M305.78,58.49S238.48,148,140.53,89.08,32.84,0,32.84,0L198,1.86Z"/><rect class="cls-8" x="136.24" y="7.12" width="217.01" height="347.76"/></g></g></g></svg>